HIERARCHY
ROOT Hips
{
	OFFSET -0.001795 -0.223333 0.028219
	CHANNELS 6 Xposition Yposition Zposition Zrotation Yrotation Xrotation
	JOINT LeftUpLeg
	{
		OFFSET 0.069520 -0.091406 -0.006815
		CHANNELS 3 Zrotation Yrotation Xrotation
		JOINT LeftLeg
		{
			OFFSET 0.034277 -0.375199 -0.004496
			CHANNELS 3 Zrotation Yrotation Xrotation
			JOINT LeftFoot
			{
				OFFSET -0.013596 -0.397961 -0.043693
				CHANNELS 3 Zrotation Yrotation Xrotation
				JOINT LeftToe
				{
					OFFSET 0.026358 -0.055791 0.119288
					CHANNELS 3 Zrotation Yrotation Xrotation
					End Site
					{
						OFFSET 0.000000 0.000000 0.000000
					}
				}
			}
		}
	}
	JOINT RightUpLeg
	{
		OFFSET -0.067670 -0.090522 -0.004320
		CHANNELS 3 Zrotation Yrotation Xrotation
		JOINT RightLeg
		{
			OFFSET -0.038290 -0.382569 -0.008850
			CHANNELS 3 Zrotation Yrotation Xrotation
			JOINT RightFoot
			{
				OFFSET 0.015774 -0.398415 -0.042312
				CHANNELS 3 Zrotation Yrotation Xrotation
				JOINT RightToe
				{
					OFFSET -0.025372 -0.048144 0.123348
					CHANNELS 3 Zrotation Yrotation Xrotation
					End Site
					{
						OFFSET 0.000000 0.000000 0.000000
					}
				}
			}
		}
	}
	JOINT Spine
	{
		OFFSET -0.002533 0.108963 -0.026696
		CHANNELS 3 Zrotation Yrotation Xrotation
		JOINT Spine1
		{
			OFFSET 0.005487 0.135180 0.001092
			CHANNELS 3 Zrotation Yrotation Xrotation
			JOINT Spine2
			{
				OFFSET 0.001457 0.052922 0.025425
				CHANNELS 3 Zrotation Yrotation Xrotation
				JOINT Neck
				{
					OFFSET -0.002778 0.213870 -0.042857
					CHANNELS 3 Zrotation Yrotation Xrotation
					JOINT Head
					{
						OFFSET 0.005152 0.064970 0.051349
						CHANNELS 3 Zrotation Yrotation Xrotation
						End Site
						{
							OFFSET 0.000000 0.000000 0.000000
						}
					}
				}
				JOINT LeftShoulder
				{
					OFFSET 0.078845 0.121749 -0.034090
					CHANNELS 3 Zrotation Yrotation Xrotation
					JOINT LeftArm
					{
						OFFSET 0.090977 0.030469 -0.008868
						CHANNELS 3 Zrotation Yrotation Xrotation
						JOINT LeftForeArm
						{
							OFFSET 0.259612 -0.012772 -0.027456
							CHANNELS 3 Zrotation Yrotation Xrotation
							JOINT LeftHand
							{
								OFFSET 0.249234 0.008986 -0.001171
								CHANNELS 3 Zrotation Yrotation Xrotation
								End Site
								{
									OFFSET 0.000000 0.000000 0.000000
								}
							}
						}
					}
				}
				JOINT RightShoulder
				{
					OFFSET -0.081759 0.118833 -0.038615
					CHANNELS 3 Zrotation Yrotation Xrotation
					JOINT RightArm
					{
						OFFSET -0.096012 0.032551 -0.009143
						CHANNELS 3 Zrotation Yrotation Xrotation
						JOINT RightForeArm
						{
							OFFSET -0.253742 -0.013329 -0.021401
							CHANNELS 3 Zrotation Yrotation Xrotation
							JOINT RightHand
							{
								OFFSET -0.255298 0.007772 -0.005559
								CHANNELS 3 Zrotation Yrotation Xrotation
								End Site
								{
									OFFSET 0.000000 0.000000 0.000000
								}
							}
						}
					}
				}
			}
		}
	}
}
MOTION
Frames: 8
Frame Time: 0.050000
0.000000 0.914340 0.000000 1.857255 4.366452 -18.524926 2.066888 0.451807 6.367958 -1.646592 -0.573883 21.636879 4.918449 11.814983 6.539759 0.000000 0.000000 0.000000 -1.506311 -0.901969 9.436403 3.082529 -0.310328 19.539280 -3.699120 -10.301741 3.658535 0.000000 0.000000 0.000000 -1.145773 -0.433052 14.068140 22.528217 5.312468 -88.831806 -4.723824 26.619216 103.059342 15.392966 -0.404200 -35.505178 0.000000 0.000000 0.000000 -31.825268 1.882615 -1.706153 -41.205317 -8.590551 -24.657648 -14.049977 -23.010265 5.546974 0.000000 0.000000 0.000000 52.325559 -9.464259 18.265686 39.626701 23.356304 -26.651646 -4.708301 23.732207 3.261375 0.000000 0.000000 0.000000
-0.001472 0.890501 -0.015868 2.402932 3.497370 -20.711964 2.760106 0.144264 1.538049 -3.779053 -0.122354 31.255622 5.430250 13.281178 9.902226 0.000000 0.000000 0.000000 -2.582229 -0.586468 6.693196 5.957608 -1.387744 29.675034 -5.807830 -13.650141 -7.376395 0.000000 0.000000 0.000000 -1.123217 -0.480027 15.836319 -94.158202 -4.919400 -131.009866 -88.810679 -50.051594 -158.795786 11.984735 -2.142382 -45.825643 0.000000 0.000000 0.000000 -24.719825 11.028955 4.978399 -53.441921 -21.745990 4.346344 2.927812 -25.864889 -10.107189 0.000000 0.000000 0.000000 28.323742 -32.709465 90.622618 -59.268673 70.950001 -93.113891 -19.148016 7.843540 0.695282 0.000000 0.000000 0.000000
-0.002312 0.862293 -0.034892 3.392089 2.444147 -24.572201 3.423752 -0.011109 -1.474470 -4.501869 0.171604 40.035979 3.998584 11.063058 10.894570 0.000000 0.000000 0.000000 -3.955896 -0.434977 5.264314 8.684555 -2.654577 37.494339 -8.419385 -21.068005 -12.921851 0.000000 0.000000 0.000000 -0.334455 -0.620042 17.908395 -159.640102 20.926953 -146.991809 -171.540994 -28.259666 -137.868412 -2.103690 11.758279 -34.903562 0.000000 0.000000 0.000000 -40.533268 -11.150294 -39.551300 -31.200734 27.027083 -1.494363 -13.799409 -23.376065 6.277819 0.000000 0.000000 0.000000 31.328402 8.780356 -57.343137 37.479965 -48.622972 -8.061295 5.528846 19.259743 -1.725341 0.000000 0.000000 0.000000
-0.001523 0.827668 -0.055551 5.076637 1.992390 -27.191604 2.333857 -0.467462 -7.126143 -4.113825 0.000525 52.012268 3.015620 8.872061 8.897439 0.000000 0.000000 0.000000 -5.517058 -0.228299 1.821864 12.466289 -5.066025 47.823373 -10.766647 -28.587482 -14.249786 0.000000 0.000000 0.000000 -0.173366 -0.577396 17.253431 -159.870964 56.922398 -111.667563 127.778950 -26.102840 -90.592530 -20.727021 13.726806 -28.344801 0.000000 0.000000 0.000000 -59.610780 16.496901 43.571353 -22.902996 -39.051465 -16.421025 5.884925 -21.418513 -1.231890 0.000000 0.000000 0.000000 7.147388 -11.557203 -10.819022 67.464989 -10.938912 -25.313626 3.384177 18.052365 -3.234438 0.000000 0.000000 0.000000
0.000683 0.785373 -0.076224 6.961438 0.257480 -31.162673 2.223852 -0.870211 -12.402074 -5.374961 1.963965 63.906962 4.017434 9.275639 3.646211 0.000000 0.000000 0.000000 -9.034250 -0.197308 -1.523273 17.105651 -7.907706 57.698897 -11.397014 -30.663508 -16.727406 0.000000 0.000000 0.000000 1.407926 -0.624761 17.914709 10.173319 22.417284 144.014838 20.789035 7.636806 -136.316552 -2.586272 6.885565 -27.564926 0.000000 0.000000 0.000000 -12.928170 8.766148 -6.631228 -67.632654 16.197879 -1.542001 -18.537998 -26.752606 2.001187 0.000000 0.000000 0.000000 -5.138276 -25.885841 8.686010 81.337808 -9.098724 -16.317677 6.926868 15.114446 -0.633837 0.000000 0.000000 0.000000
0.003972 0.727393 -0.095519 8.775731 1.272442 -34.434773 2.170653 -1.537776 -20.337785 -6.779261 3.836909 78.509340 5.320136 10.594503 -1.631174 0.000000 0.000000 0.000000 -13.219335 -0.526247 -5.796379 22.378453 -12.839980 65.969450 -10.738992 -30.868674 -23.653567 0.000000 0.000000 0.000000 2.278931 -0.546227 17.194442 14.560353 46.425168 132.564165 44.049809 15.521050 -116.030688 -5.069501 9.545030 -20.680001 0.000000 0.000000 0.000000 -23.855695 9.860557 -5.280409 -58.297116 11.622709 0.512057 -22.705774 -28.393991 5.260820 0.000000 0.000000 0.000000 -8.479692 -25.141754 14.255298 74.853086 -7.626568 -21.837274 13.403922 15.502179 0.020294 0.000000 0.000000 0.000000
0.007996 0.652106 -0.113585 10.399744 2.035271 -40.353328 2.945294 -1.611054 -23.669511 -3.129680 0.142295 87.477474 5.988989 10.299673 -9.248077 0.000000 0.000000 0.000000 -15.885035 -1.048734 -9.720967 28.787793 -18.854826 71.330863 -9.701574 -32.187293 -34.803056 0.000000 0.000000 0.000000 6.781368 -0.567007 18.563561 8.921437 49.305094 127.120549 48.488828 12.555609 -110.213419 -3.238248 13.128496 -12.795689 0.000000 0.000000 0.000000 -21.261272 3.625833 1.842807 -56.764430 3.754174 2.671105 -23.277042 -37.456718 9.043558 0.000000 0.000000 0.000000 -6.937763 -27.119156 13.629958 70.016811 -9.095615 -21.401486 13.122565 18.609577 -0.026892 0.000000 0.000000 0.000000
0.012045 0.571749 -0.128954 11.632443 5.590826 -44.993199 0.156800 -2.697557 -25.037352 1.591763 -7.837102 91.633947 6.989240 12.144759 -12.629559 0.000000 0.000000 0.000000 -18.658470 -1.961309 -12.245975 37.055822 -27.368097 71.829466 -8.916318 -27.832388 -42.095561 0.000000 0.000000 0.000000 9.423641 -0.323831 18.970080 4.593732 44.971783 131.296964 49.803823 12.893977 -109.962476 4.461411 16.686920 -2.261472 0.000000 0.000000 0.000000 -18.938491 0.424393 5.895719 -51.457857 -9.443612 6.592722 -17.625258 -51.831396 13.227680 0.000000 0.000000 0.000000 -0.350130 -21.670159 9.934262 67.400647 -11.258703 -19.427185 10.810246 20.831477 -0.627609 0.000000 0.000000 0.000000
